#!OML:ASF I:\Actors\actors\Patient Classification 2\Patient 1\Session 1\actor1.ASF
:FULLY-SPECIFIED
:DEGREES
139
root 0.274485 18.255 5.83831 -0.463585 -10.2714 -4.73576
lowerback 13.4036 -0.342516 0.281997
upperback 2.3874 -0.324684 1.80279
thorax -4.98974 -0.158224 1.7907
lowerneck -10.6104 -1.87229 1.33251
upperneck 12.3067 -3.34609 4.12997
head 5.5123 -1.2773 0.814002
rclavicle 3.44146e-014 7.15625e-015
rhumerus -52.9785 1.72219 -83.5423
rradius 92.5333
rwrist 4.01695
rhand -17.5185 -27.9911
rfingers 7.12502
rthumb 8.73503 -57.7903
lclavicle 3.44146e-014 7.15625e-015
lhumerus -38.7109 -18.5055 101.309
lradius 88.9762
lwrist -1.47404
lhand -8.05198 -27.9456
lfingers 7.12502
lthumb 17.8588 1.25438
rfemur -0.220553 5.45605 15.445
rtibia 15.4983
rfoot -18.1529 -6.05077
rtoes -17.0803
lfemur -11.0374 7.50159 -12.1817
ltibia 39.1943
lfoot -26.3483 6.97955
ltoes -56.3331
140
root 0.257282 18.2615 5.83124 -0.429358 -9.6866 -4.70653
lowerback 13.5124 -0.249341 0.471115
upperback 2.28222 -0.167999 1.83737
thorax -5.16546 -0.0825803 1.69483
lowerneck -10.7972 -1.71765 1.38203
upperneck 12.4562 -3.12243 3.89565
head 5.58233 -1.17664 0.748431
rclavicle 4.96962e-015 9.34288e-015
rhumerus -53.1152 1.27847 -82.888
rradius 92.5157
rwrist 4.19773
rhand -17.5533 -28.064
rfingers 7.12502
rthumb 8.70144 -57.8647
lclavicle 4.96962e-015 9.34288e-015
lhumerus -38.7396 -19.0613 101.654
lradius 89.0489
lwrist -1.34664
lhand -7.80927 -27.9669
lfingers 7.12502
lthumb 18.0923 1.21168
rfemur -0.018258 5.14671 15.4899
rtibia 15.2097
rfoot -18.3125 -6.33059
rtoes -17.2542
lfemur -11.1293 7.02385 -12.1994
ltibia 39.0175
lfoot -26.2132 6.90147
ltoes -56.3923
141
root 0.23852 18.267 5.82099 -0.390899 -9.10775 -4.72834
lowerback 13.6405 -0.20956 0.701101
upperback 2.17896 -0.0758657 1.85645
thorax -5.3477 -0.0401037 1.5705
lowerneck -10.79 -1.52893 1.5035
upperneck 12.4795 -2.85791 3.69401
head 5.57984 -1.056 0.686627
rclavicle -3.71479e-014 -2.48481e-015
rhumerus -53.1652 0.924466 -82.3694
rradius 92.5327
rwrist 4.42097
rhand -17.5303 -28.0885
rfingers 7.12502
rthumb 8.72365 -57.8883
lclavicle -3.71479e-014 -2.48481e-015
lhumerus -38.8147 -19.523 101.88
lradius 89.1147
lwrist -1.25874
lhand -7.83509 -28.1011
lfingers 7.12502
lthumb 18.0675 1.07978
rfemur 0.167338 4.88321 15.6052
rtibia 14.9406
rfoot -18.4355 -6.62119
rtoes -17.2977
lfemur -11.2471 6.54542 -12.1612
ltibia 38.8729
lfoot -26.0697 6.94509
ltoes -56.5474
142
root 0.21781 18.2705 5.80846 -0.347332 -8.44372 -4.77548
lowerback 13.7061 -0.238541 0.885343
upperback 2.10205 -0.0820093 1.88117
thorax -5.46523 -0.0456759 1.49467
lowerneck -10.4514 -1.19251 1.67555
upperneck 12.2375 -2.39189 3.57106
head 5.43759 -0.838632 0.659319
rclavicle -2.07109e-014 -1.49089e-015
rhumerus -53.078 0.64148 -82.0053
rradius 92.5421
rwrist 4.43878
rhand -17.4894 -27.7881
rfingers 7.12502
rthumb 8.76305 -57.5862
lclavicle -2.07109e-014 -1.49089e-015
lhumerus -38.8414 -19.9151 102.002
lradius 89.19
lwrist -1.19211
lhand -7.98424 -28.1036
lfingers 7.12502
lthumb 17.924 1.09042
rfemur 0.336885 4.59052 15.7576
rtibia 14.7135
rfoot -18.5644 -6.92595
rtoes -17.149
lfemur -11.4052 5.95679 -12.0916
ltibia 38.7539
lfoot -25.9337 6.94853
ltoes -56.6032
143
root 0.196942 18.2742 5.79709 -0.329065 -7.81777 -4.81592
lowerback 13.6815 -0.25727 0.977087
upperback 2.0907 -0.0895967 1.93746
thorax -5.46357 -0.0504006 1.50334
lowerneck -10.2253 -0.926597 1.80169
upperneck 12.0897 -2.01405 3.39628
head 5.34594 -0.666188 0.61435
rclavicle -1.89591e-014 -1.56046e-014
rhumerus -52.9051 0.297209 -81.7025
rradius 92.5731
rwrist 4.38713
rhand -17.4694 -27.4648
rfingers 7.12502
rthumb 8.78236 -57.2621
lclavicle -1.89591e-014 -1.56046e-014
lhumerus -38.8025 -20.2526 102.099
lradius 89.2831
lwrist -1.10969
lhand -7.9758 -27.916
lfingers 7.12502
lthumb 17.9321 1.27731
rfemur 0.502046 4.28187 15.8961
rtibia 14.5288
rfoot -18.7013 -7.22318
rtoes -17.0332
lfemur -11.5319 5.3359 -12.0252
ltibia 38.6455
lfoot -25.8234 6.92791
ltoes -56.51
144
root 0.177656 18.2797 5.78771 -0.330427 -7.34879 -4.80228
lowerback 13.6271 -0.231428 0.981748
upperback 2.10465 -0.0533256 1.97885
thorax -5.41952 -0.0321937 1.53712
lowerneck -10.4386 -0.865661 1.90601
upperneck 12.3275 -1.93474 3.18701
head 5.45236 -0.630203 0.536991
rclavicle -8.31168e-015 6.16232e-015
rhumerus -52.7473 -0.0346847 -81.4621
rradius 92.6559
rwrist 4.25871
rhand -17.4742 -27.3599
rfingers 7.12502
rthumb 8.77779 -57.1574
lclavicle -8.31168e-015 6.16232e-015
lhumerus -38.7956 -20.5261 102.165
lradius 89.3581
lwrist -1.05375
lhand -7.92532 -27.8735
lfingers 7.12502
lthumb 17.9807 1.31535
rfemur 0.638182 4.00044 15.9525
rtibia 14.3705
rfoot -18.7871 -7.41168
rtoes -16.9387
lfemur -11.6068 4.83567 -12.0137
ltibia 38.5424
lfoot -25.749 6.96975
ltoes -56.4633
145
root 0.158213 18.2861 5.77836 -0.354102 -6.84703 -4.79237
lowerback 13.6154 -0.231911 0.988641
upperback 2.10767 -0.0508594 2.01105
thorax -5.40994 -0.0306398 1.56656
lowerneck -10.6358 -0.875588 1.94379
upperneck 12.5224 -1.95705 3.1111
head 5.54578 -0.638686 0.504389
rclavicle -2.26118e-015 1.98785e-016
rhumerus -52.6371 -0.287822 -81.2802
rradius 92.7568
rwrist 4.12721
rhand -17.8076 -27.6326
rfingers 7.12502
rthumb 8.45598 -57.4433
lclavicle -2.26118e-015 1.98785e-016
lhumerus -38.8204 -20.7806 102.23
lradius 89.4061
lwrist -1.08954
lhand -8.05388 -28.0092
lfingers 7.12502
lthumb 17.857 1.19094
rfemur 0.815971 3.66607 16.0135
rtibia 14.185
rfoot -18.8517 -7.56616
rtoes -16.7924
lfemur -11.6602 4.38504 -11.9808
ltibia 38.4374
lfoot -25.647 6.95025
ltoes -56.4625
146
root 0.137699 18.2922 5.76563 -0.306951 -6.22691 -4.81333
lowerback 13.6189 -0.274902 1.035
upperback 2.05917 -0.0971026 2.04297
thorax -5.46228 -0.0535294 1.58281
lowerneck -10.6845 -0.886888 1.92849
upperneck 12.6108 -1.9705 3.08419
head 5.58159 -0.64551 0.497118
rclavicle -5.70885e-015 1.27222e-014
rhumerus -52.6072 -0.50242 -81.1453
rradius 92.8973
rwrist 3.9887
rhand -18.3534 -28.041
rfingers 7.12502
rthumb 7.92924 -57.8723
lclavicle -5.70885e-015 1.27222e-014
lhumerus -38.8726 -21.0428 102.284
lradius 89.4921
lwrist -1.12949
lhand -8.22977 -28.0647
lfingers 7.12502
lthumb 17.6877 1.1508
rfemur 0.945159 3.28473 16.1195
rtibia 13.9697
rfoot -18.9733 -7.78505
rtoes -16.5158
lfemur -11.8331 3.89954 -11.9068
ltibia 38.3342
lfoot -25.4845 6.86507
ltoes -56.4658
147
root 0.119375 18.2968 5.76011 -0.324493 -5.84742 -4.83762
lowerback 13.609 -0.24754 1.11483
upperback 2.05946 -0.0488664 2.0463
thorax -5.45754 -0.0311844 1.53232
lowerneck -10.8023 -0.904218 1.93036
upperneck 12.7591 -1.99147 3.00317
head 5.64724 -0.657301 0.469091
rclavicle -1.24303e-014 -3.97569e-015
rhumerus -52.6274 -0.656604 -81.0551
rradius 93.0795
rwrist 3.75216
rhand -17.1173 -28.3085
rfingers 7.12502
rthumb 9.12214 -58.0912
lclavicle -1.24303e-014 -3.97569e-015
lhumerus -38.8982 -21.2518 102.278
lradius 89.6306
lwrist -1.07894
lhand -8.21366 -28.0774
lfingers 7.12502
lthumb 17.7032 1.13669
rfemur 1.13171 3.09638 16.2281
rtibia 13.7559
rfoot -19.0738 -7.95376
rtoes -16.2714
lfemur -11.8575 3.62395 -11.8182
ltibia 38.2339
lfoot -25.4061 6.75937
ltoes -56.5172
